<?xml version="1.0" encoding="iso-8859-1"?>
<!-- Uploaded to: SVG Repo, www.svgrepo.com, Generator: SVG Repo Mixer Tools -->
<svg height="800px" width="800px" version="1.1" id="Layer_1" xmlns="http://www.w3.org/2000/svg" xmlns:xlink="http://www.w3.org/1999/xlink" 
	 viewBox="0 0 512 512" xml:space="preserve">
<g>
	<path style="fill:#F7B239;" d="M363.212,56.566v99.111H174.794c-14.369,0-26.011,11.642-26.011,26.011v11.452H34.9
		c-14.369,0-26.011-11.642-26.011-26.011V56.566c0-14.357,11.642-25.999,26.011-25.999h302.301
		C351.57,30.567,363.212,42.209,363.212,56.566z"/>
	<path style="fill:#F7B239;" d="M363.212,318.263v93.504c0,14.369-11.642,26.011-26.011,26.011H123.733l-43.652,43.652v-43.652H34.9
		c-14.357,0-26.011-11.642-26.011-26.011V301.203c0-14.357,11.654-25.999,26.011-25.999h113.883h188.418
		c14.369,0,26.011,11.642,26.011,25.999V318.263z"/>
</g>
<path style="fill:#F95428;" d="M503.106,181.688v110.564c0,14.357-11.642,26.011-26.011,26.011H363.212v-17.06
	c0-14.357-11.642-25.999-26.011-25.999H148.783v-82.063v-11.452c0-14.369,11.642-26.011,26.011-26.011h188.418h113.883
	C491.464,155.678,503.106,167.32,503.106,181.688z"/>
<g>
	<path style="fill:#333333;" d="M477.098,146.784H372.106v-90.22c0-19.239-15.656-34.891-34.901-34.891H34.902
		C15.657,21.673,0,37.325,0,56.564v110.564c0,19.245,15.657,34.902,34.902,34.902h104.992v64.279H34.902
		c-19.244,0-34.9,15.656-34.9,34.9V411.77c0,19.244,15.656,34.9,34.9,34.9h36.284v34.765c0,3.597,2.166,6.838,5.489,8.215
		c1.1,0.455,2.255,0.677,3.401,0.677c2.314,0,4.588-0.903,6.289-2.605l41.052-41.052h209.789c19.243,0,34.9-15.656,34.9-34.9
		v-84.618h104.993c19.245,0,34.901-15.657,34.901-34.902V181.686C512,162.441,496.344,146.784,477.098,146.784z M34.902,184.247
		c-9.439,0-17.119-7.68-17.119-17.119V56.564c0-9.433,7.68-17.107,17.119-17.107h302.301c9.439,0,17.118,7.674,17.118,17.107v90.22
		H174.796c-19.245,0-34.902,15.657-34.902,34.902v2.561H34.902z M354.323,411.769c0,9.438-7.679,17.117-17.117,17.117H123.735
		c-2.358,0-4.62,0.937-6.287,2.605L88.97,459.968v-22.19c0-4.911-3.981-8.892-8.892-8.892H34.902
		c-9.438,0-17.117-7.679-17.117-17.117V301.209c0-9.438,7.679-17.117,17.117-17.117h302.304c9.438,0,17.117,7.679,17.117,17.117
		V411.769z M494.217,292.25c0,9.439-7.68,17.119-17.118,17.119H372.106v-8.161c0-19.244-15.656-34.9-34.9-34.9H157.677v-84.622
		c0-9.439,7.68-17.119,17.119-17.119h302.301c9.439,0,17.118,7.68,17.118,17.119V292.25H494.217z"/>
	<path style="fill:#333333;" d="M59.716,92.96h173.089c4.911,0,8.892-3.981,8.892-8.892s-3.981-8.892-8.892-8.892H59.716
		c-4.911,0-8.892,3.981-8.892,8.892S54.805,92.96,59.716,92.96z"/>
	<path style="fill:#333333;" d="M291.489,119.872c0-4.911-3.98-8.892-8.892-8.892H59.716c-4.911,0-8.892,3.981-8.892,8.892
		c0,4.911,3.981,8.892,8.892,8.892h222.882C287.508,128.763,291.489,124.782,291.489,119.872z"/>
	<path style="fill:#333333;" d="M194.7,211.514H367.79c4.912,0,8.892-3.981,8.892-8.892c0-4.911-3.98-8.892-8.892-8.892H194.7
		c-4.911,0-8.892,3.981-8.892,8.892C185.809,207.533,189.79,211.514,194.7,211.514z"/>
	<path style="fill:#333333;" d="M417.583,229.535H194.702c-4.911,0-8.892,3.981-8.892,8.892c0,4.911,3.981,8.892,8.892,8.892
		h222.882c4.912,0,8.892-3.981,8.892-8.892C426.475,233.516,422.495,229.535,417.583,229.535z"/>
	<path style="fill:#333333;" d="M59.716,328.604h173.089c4.911,0,8.892-3.981,8.892-8.892s-3.981-8.892-8.892-8.892H59.716
		c-4.911,0-8.892,3.981-8.892,8.892S54.805,328.604,59.716,328.604z"/>
	<path style="fill:#333333;" d="M59.716,364.409h109.07c4.911,0,8.892-3.981,8.892-8.892c0-4.91-3.981-8.892-8.892-8.892H59.716
		c-4.911,0-8.892,3.981-8.892,8.892C50.824,360.428,54.805,364.409,59.716,364.409z"/>
	<path style="fill:#333333;" d="M282.598,383.852H59.716c-4.911,0-8.892,3.981-8.892,8.892c0,4.911,3.981,8.892,8.892,8.892h222.882
		c4.912,0,8.892-3.981,8.892-8.892C291.489,387.833,287.508,383.852,282.598,383.852z"/>
</g>
</svg>